<?xml version="1.0" encoding="utf-8"?><svg xmlns="http://www.w3.org/2000/svg" xmlns:xlink="http://www.w3.org/1999/xlink"><symbol fill="none" viewBox="0 0 32 14" id="burger" xmlns="http://www.w3.org/2000/svg"><path fill="#080E0D" d="M0 0h32v2H0zM0 12h26v2H0z"/></symbol><symbol fill="none" viewBox="0 0 39 9" id="crumbs-back" xmlns="http://www.w3.org/2000/svg"><path d="M.646 4.146a.5.5 0 000 .708l3.182 3.182a.5.5 0 10.708-.708L1.707 4.5l2.829-2.828a.5.5 0 10-.708-.708L.646 4.146zM39 4H1v1h38V4z" fill="#B5B7B6"/></symbol><symbol fill="none" viewBox="0 0 98 17" id="develop" xmlns="http://www.w3.org/2000/svg"><path d="M81 .157v2.705h10V.157H81zM92.954 6.297l-1.886-1.912-7.07 7.171 1.885 1.913 7.071-7.172zM94.336 16.386h2.667V6.243h-2.667v10.143zM5.337 12.267c-1.716 0-2.985-.37-3.806-1.106C.72 10.415.313 9.272.313 7.73c0-1.516.418-2.634 1.256-3.354.837-.73 2.135-1.094 3.893-1.094 2.918 0 4.502 1.031 4.75 3.094H9.045c-.108-.704-.456-1.222-1.045-1.553-.58-.34-1.426-.51-2.537-.51-1.393 0-2.405.27-3.035.808-.622.53-.933 1.404-.933 2.622 0 1.234.307 2.124.92 2.671.614.547 1.605.82 2.973.82 2.371 0 3.632-.766 3.781-2.298h1.182c-.1 1.093-.58 1.921-1.443 2.485-.854.563-2.044.845-3.57.845zM15.487 12.267c-1.327 0-2.305-.278-2.935-.833-.622-.563-.933-1.437-.933-2.622 0-1.168.315-2.03.945-2.584.63-.555 1.605-.833 2.923-.833 1.302 0 2.268.282 2.898.845.63.555.945 1.413.945 2.572 0 1.177-.315 2.046-.945 2.61-.622.563-1.588.845-2.898.845zm0-.994c.962 0 1.646-.191 2.052-.572.406-.381.61-1.01.61-1.889 0-.87-.204-1.49-.61-1.863s-1.09-.56-2.052-.56c-.954 0-1.642.191-2.065.572-.423.381-.634.998-.634 1.851 0 .87.211 1.5.634 1.889.423.381 1.111.572 2.065.572zM26.067 8.614v.124c1.012.215 1.518.75 1.518 1.603 0 1.284-1.174 1.926-3.52 1.926-2.322 0-3.54-.73-3.657-2.187h1.144c.117.795.95 1.193 2.5 1.193 1.551 0 2.326-.353 2.326-1.057 0-.356-.182-.613-.547-.77-.357-.166-.924-.248-1.704-.248h-1.642v-.995h1.642c.722 0 1.248-.074 1.58-.223.331-.15.497-.385.497-.708 0-.588-.7-.883-2.102-.883-1.484 0-2.263.381-2.338 1.144h-1.17c.067-.721.386-1.255.958-1.603.58-.356 1.443-.535 2.588-.535 2.18 0 3.27.597 3.27 1.79 0 .712-.447 1.188-1.343 1.429zM35.51 5.582v5.516h.772v3.07h-1.194V12.08h-5.61v2.088h-1.194v-3.07h.747c.621-.505.932-1.565.932-3.18V5.582h5.547zm-5.124 5.516h3.93V6.563h-3.171v1.541c0 1.267-.253 2.266-.759 2.995zM40.481 5.395c1.061 0 1.85.208 2.363.622.514.414.771 1.048.771 1.9v4.163h-1.169v-1.13c-.456.878-1.293 1.317-2.512 1.317-1.866 0-2.799-.663-2.799-1.989 0-1.383 1.029-2.075 3.085-2.075.837 0 1.58.1 2.226.299v-.584c0-.53-.157-.916-.472-1.156-.316-.248-.809-.373-1.48-.373-1.186 0-1.816.311-1.891.932h-1.107c.091-1.284 1.086-1.926 2.985-1.926zm-.336 5.915c.655 0 1.186-.129 1.592-.385.415-.266.651-.618.71-1.057v-.422c-.631-.199-1.352-.298-2.165-.298-1.31 0-1.965.377-1.965 1.13 0 .688.61 1.032 1.828 1.032zM50.676 8.191v-2.61h1.169v6.5h-1.17V9.172h-3.967v2.907H45.54V5.582h1.17v2.61h3.967zM57.33 12.267c-1.327 0-2.305-.278-2.935-.833-.622-.563-.933-1.437-.933-2.622 0-1.168.315-2.03.945-2.584.63-.555 1.605-.833 2.923-.833 1.302 0 2.268.282 2.898.845.63.555.945 1.413.945 2.572 0 1.177-.315 2.046-.945 2.61-.622.563-1.588.845-2.898.845zm0-.994c.962 0 1.646-.191 2.052-.572.406-.381.61-1.01.61-1.889 0-.87-.204-1.49-.61-1.863s-1.09-.56-2.052-.56c-.954 0-1.642.191-2.065.572-.423.381-.634.998-.634 1.851 0 .87.211 1.5.634 1.889.423.381 1.111.572 2.065.572zM71.64 8.614v.111c.903.207 1.355.717 1.355 1.529 0 1.217-.879 1.826-2.636 1.826h-3.856V5.582h3.793c1.659 0 2.488.538 2.488 1.615 0 .365-.087.659-.261.882-.174.216-.469.394-.883.535zm-3.968-2.05v1.64h2.662c.43 0 .746-.063.945-.187.199-.132.299-.344.299-.634 0-.546-.457-.82-1.369-.82h-2.537zm0 2.621v1.913h2.65c.986 0 1.48-.31 1.48-.931 0-.34-.12-.588-.361-.746-.24-.157-.618-.236-1.132-.236h-2.637z" fill="#262626"/></symbol><symbol fill="none" viewBox="0 0 24 24" id="next" xmlns="http://www.w3.org/2000/svg"><path d="M10.17 5a1 1 0 01.78.37l4.83 6a1 1 0 010 1.27l-5 6a1 1 0 11-1.54-1.28L13.71 12 9.39 6.64A1 1 0 0110.17 5z" fill="#080E0D"/></symbol><symbol fill="none" viewBox="0 0 24 23" id="phone" xmlns="http://www.w3.org/2000/svg"><path d="M9.976 13.431a14.392 14.392 0 005.215 3.304l2.657-2.07a.48.48 0 01.536 0l4.933 3.111c.187.11.346.262.463.442a1.362 1.362 0 01.13 1.226c-.077.2-.2.38-.36.525l-2.312 2.235c-.331.32-.738.555-1.184.683a2.878 2.878 0 01-1.374.055 24.912 24.912 0 01-12.087-6.207A23.169 23.169 0 01.06 5.128a2.553 2.553 0 01.06-1.324 2.6 2.6 0 01.716-1.125L3.232.417a1.438 1.438 0 011.75-.212c.181.11.334.258.449.433l3.284 4.766a.428.428 0 010 .517L6.55 8.466a13.61 13.61 0 003.425 4.965z" fill="#262626"/></symbol><symbol fill="none" viewBox="0 0 24 24" id="prev" xmlns="http://www.w3.org/2000/svg"><path d="M13.83 19a1 1 0 01-.78-.37l-4.83-6a1 1 0 010-1.27l5-6a1.001 1.001 0 111.54 1.28L10.29 12l4.32 5.36a1 1 0 01-.78 1.64z" fill="#080E0D"/></symbol><symbol fill="none" viewBox="0 0 10 19" id="socials-1" xmlns="http://www.w3.org/2000/svg"><path d="M2.553 19v-8.915H0v-3.21h2.553V4.133C2.553 1.979 4.06 0 7.535 0c1.407 0 2.447.125 2.447.125L9.9 3.122s-1.06-.01-2.218-.01c-1.253 0-1.454.534-1.454 1.419v2.344H10l-.164 3.21H6.228V19H2.553z" fill="#080E0D"/></symbol><symbol fill="none" viewBox="0 0 19 19" id="socials-2" xmlns="http://www.w3.org/2000/svg"><path d="M9.497 6.332A3.175 3.175 0 006.33 9.5a3.175 3.175 0 003.168 3.168A3.175 3.175 0 0012.665 9.5a3.175 3.175 0 00-3.168-3.168zM19 9.5c0-1.312.012-2.612-.062-3.921-.074-1.521-.42-2.871-1.533-3.984C16.29.481 14.942.136 13.421.062 12.11-.01 10.81.001 9.5.001 8.188 0 6.888-.011 5.579.062 4.058.136 2.708.483 1.595 1.595.481 2.71.136 4.058.062 5.58-.01 6.89.001 8.19.001 9.5c0 1.31-.012 2.612.061 3.921.074 1.521.421 2.871 1.533 3.984 1.115 1.114 2.463 1.459 3.984 1.532 1.311.074 2.611.062 3.92.062 1.313 0 2.613.012 3.922-.061 1.521-.074 2.871-.421 3.983-1.533 1.115-1.115 1.46-2.463 1.533-3.984.076-1.31.062-2.61.062-3.921zm-9.502 4.874A4.867 4.867 0 014.623 9.5a4.868 4.868 0 014.874-4.874A4.868 4.868 0 0114.372 9.5a4.868 4.868 0 01-4.875 4.874zm5.074-8.81c-.63 0-1.138-.508-1.138-1.138a1.137 1.137 0 111.944.805 1.137 1.137 0 01-.806.333z" fill="#080E0D"/></symbol><symbol fill="none" viewBox="0 0 26 17" id="socials-3" xmlns="http://www.w3.org/2000/svg"><path d="M24.813 2.652a2.942 2.942 0 00-.808-1.34 3.22 3.22 0 00-1.413-.784C20.609.005 12.665.005 12.665.005A80.904 80.904 0 002.75.501a3.336 3.336 0 00-1.413.803c-.39.376-.673.84-.821 1.347A30.715 30.715 0 000 8.452c-.013 1.944.16 3.886.515 5.801.145.506.426.967.818 1.34.392.373.88.642 1.416.784 2.01.522 9.915.522 9.915.522a81.088 81.088 0 009.927-.496 3.22 3.22 0 001.413-.784c.39-.372.668-.836.807-1.34.365-1.913.542-3.856.53-5.803a28.064 28.064 0 00-.529-5.825v.001zM10.14 12.067v-7.23l6.61 3.616-6.61 3.614z" fill="#080E0D"/></symbol></svg>