<svg width="24" height="24" viewBox="0 0 24 24" fill="none" xmlns="http://www.w3.org/2000/svg">
<path d="M4.99875 13.8302C4.99824 13.6808 5.03121 13.5332 5.09524 13.3982C5.15927 13.2632 5.25273 13.1443 5.36875 13.0502L11.3687 8.22016C11.5477 8.07308 11.7721 7.99268 12.0037 7.99268C12.2354 7.99268 12.4598 8.07308 12.6387 8.22016L18.6387 13.2202C18.843 13.3899 18.9714 13.6338 18.9958 13.8982C19.0201 14.1627 18.9385 14.4259 18.7687 14.6302C18.599 14.8344 18.3551 14.9628 18.0907 14.9872C17.8262 15.0116 17.563 14.9299 17.3587 14.7602L11.9987 10.2902L6.63875 14.6102C6.49196 14.7324 6.31322 14.8101 6.12367 14.834C5.93412 14.8579 5.7417 14.827 5.56917 14.7449C5.39665 14.6629 5.25123 14.5331 5.15014 14.371C5.04905 14.2089 4.99652 14.0212 4.99875 13.8302Z" fill="#080E0D"/>
</svg>
