<svg width="90" height="132" viewBox="0 0 90 132" fill="none" xmlns="http://www.w3.org/2000/svg">
<g filter="url(#filter0_b_1257_15453)">
<path d="M0 0H90V122C90 127.523 85.5229 132 80 132H10C4.47715 132 0 127.523 0 122V0Z" fill="#080E0D"/>
</g>
<path d="M29.0506 39.751V38.2815C29.0506 37.9328 28.8059 37.6301 28.4642 37.5692C23.0292 36.6066 18.9 31.8639 18.9 26.1525V19.3842C18.9 19.1192 19.1157 18.9022 19.3836 18.9022H26.1506C31.8607 18.9022 36.6053 23.0312 37.5681 28.466C37.6303 28.8062 37.9329 29.0508 38.2804 29.0508H39.7513C40.1973 29.0508 40.5404 28.6526 40.4695 28.2126C39.3735 21.2924 33.3795 16.0024 26.1506 16.0024H16.7268C16.3258 16.0024 16 16.3267 16 16.729V26.1525C16 33.3809 21.2903 39.3731 28.2108 40.4705C28.651 40.5399 29.0506 40.1968 29.0506 39.751Z" fill="#ADCE6D"/>
<path d="M44.2614 29.0498H45.7469C46.1318 29.0498 46.4504 28.7471 46.4677 28.3634C46.6545 23.7917 48.712 19.7032 51.8943 16.8381C52.2214 16.5427 52.0057 15.9999 51.5669 15.9999H48.9493C48.7424 15.9999 48.5425 16.0869 48.405 16.2418C46.9846 17.8473 45.8308 19.6902 45.0026 21.7025C44.176 19.6917 43.0206 17.8485 41.6003 16.243C41.4628 16.0869 41.2629 15.9999 41.0544 15.9999H38.4397C37.9981 15.9999 37.7838 16.5442 38.1125 16.8381C41.2933 19.7032 43.3508 23.7902 43.5388 28.3607C43.5549 28.7471 43.8762 29.0498 44.2614 29.0498Z" fill="#ADCE6D"/>
<path d="M50.2481 29.052H51.7189C52.0664 29.052 52.3691 28.8074 52.43 28.4642C53.3942 23.0309 58.1358 18.9019 63.8473 18.9019H70.616C70.8807 18.9019 71.0979 19.1176 71.0979 19.3854V26.1522C71.0979 31.862 66.9687 36.6062 61.5336 37.5689C61.1935 37.6297 60.9488 37.9337 60.9488 38.2799V39.7507C60.9488 40.1967 61.3483 40.5411 61.7871 40.4702C68.7076 39.3728 73.9979 33.3806 73.9979 26.1522V16.7289C73.9979 16.3279 73.6736 16.0021 73.2725 16.0021H63.8473C56.62 16.0021 50.626 21.2921 49.5285 28.2123C49.4591 28.6525 49.802 29.052 50.2481 29.052Z" fill="#ADCE6D"/>
<path d="M60.9492 44.2569V45.7423C60.9492 46.1274 61.2502 46.446 61.6354 46.4633C66.2076 46.6516 70.2963 48.7072 73.1616 51.8893C73.4555 52.2167 73.9998 52.0024 73.9998 51.5623V48.9448C73.9998 48.7376 73.9113 48.538 73.7565 48.4005C72.1523 46.9802 70.3079 45.8262 68.2954 44.9981C70.3079 44.1702 72.1508 43.0162 73.7552 41.5959C73.9113 41.4584 73.9998 41.2588 73.9998 41.0501V38.4357C73.9998 37.9954 73.4555 37.7797 73.1616 38.1086C70.2963 41.2892 66.2091 43.3463 61.6384 43.5346C61.2517 43.5504 60.9492 43.872 60.9492 44.2569Z" fill="#ADCE6D"/>
<path d="M60.9477 50.2515V51.7224C60.9477 52.0699 61.1924 52.3724 61.5341 52.4332C66.9692 53.3959 71.0969 58.1388 71.0969 63.8514V70.6167C71.0969 70.8829 70.8811 71.1002 70.6146 71.1002H63.8477C58.136 71.1002 53.3931 66.9712 52.4301 61.5366C52.368 61.1962 52.0653 60.9516 51.7178 60.9516H50.247C49.8009 60.9516 49.4577 61.3498 49.5289 61.7898C50.6249 68.71 56.6187 74 63.8477 74H73.2715C73.6725 74 73.9983 73.6757 73.9983 73.2735V63.8514C73.9983 56.6215 68.7065 50.6293 61.7875 49.5319C61.3472 49.4625 60.9477 49.8057 60.9477 50.2515Z" fill="#ADCE6D"/>
<path d="M45.7363 60.9501H44.2508C43.8671 60.9501 43.5471 61.2513 43.5297 61.6364C43.3417 66.2084 41.2857 70.2966 38.1034 73.1603C37.7762 73.4557 37.9919 74 38.4306 74H41.0482C41.2553 74 41.455 73.9117 41.5927 73.7568C43.0128 72.1526 44.1668 70.3082 44.9951 68.2959C45.8217 70.3082 46.9771 72.1513 48.3974 73.7554C48.5349 73.9117 48.7348 74 48.9432 74H51.5578C51.9996 74 52.2138 73.4557 51.8852 73.1603C48.7044 70.2966 46.6469 66.2097 46.4586 61.6393C46.4428 61.2528 46.1214 60.9501 45.7363 60.9501Z" fill="#ADCE6D"/>
<path d="M39.7538 60.9501H38.2828C37.9354 60.9501 37.6328 61.1948 37.572 61.5364C36.6077 66.9712 31.8661 71.0987 26.1545 71.0987H19.386C19.121 71.0987 18.9039 70.883 18.9039 70.6167V63.8499C18.9039 58.1385 23.0331 53.3958 28.4681 52.4332C28.8084 52.3708 29.053 52.0684 29.053 51.721V50.2499C29.053 49.8041 28.6535 49.461 28.2147 49.5319C21.2942 50.6278 16.0039 56.6215 16.0039 63.8499V73.2732C16.0039 73.6744 16.3282 74 16.7292 74H26.1545C33.382 74 39.376 68.7085 40.4734 61.7898C40.5429 61.3498 40.1997 60.9501 39.7538 60.9501Z" fill="#ADCE6D"/>
<path d="M29.0506 45.7403V44.2549C29.0506 43.8712 28.7494 43.5512 28.3643 43.5338C23.7922 43.347 19.7036 41.29 16.8383 38.1078C16.5444 37.7805 16 37.9964 16 38.4349V41.0524C16 41.2595 16.0883 41.4592 16.2433 41.5969C17.8474 43.0169 19.6905 44.1709 21.7044 44.9991C19.692 45.827 17.8489 46.981 16.2447 48.4012C16.0883 48.5387 16 48.7384 16 48.9471V51.5615C16 52.0018 16.5444 52.2174 16.8383 51.8888C19.7036 48.7082 23.7907 46.6509 28.3614 46.4626C28.748 46.4467 29.0506 46.1254 29.0506 45.7403Z" fill="#ADCE6D"/>
<path d="M20.8887 101.267V105.834H20.1328V102.637L18.6695 104.802H18.2192L16.7549 102.631V105.834H16V101.267H16.6819L18.4449 103.882L20.2068 101.267H20.8887Z" fill="#FBF9F7"/>
<path d="M25.3996 101.267V101.945H22.9617V103.191H25.2018V103.87H22.9617V105.155H25.4402V105.834H22.207V101.267H25.3996Z" fill="#FBF9F7"/>
<path d="M27.4556 105.152H29.6076V101.95H28.1178C28.046 103.086 27.8932 104.324 27.4556 105.152ZM26.0781 106.868V105.152H26.635C27.2242 104.096 27.3758 102.609 27.3758 101.265H30.3637V105.152H30.9529V106.868H30.264V105.832H26.7669V106.868H26.0781Z" fill="#FBF9F7"/>
<path d="M35.1176 105.832V102.989C35.1176 102.825 35.1176 102.649 35.1234 102.492L32.6276 105.832H31.918V101.265H32.6738V104.103C32.6738 104.274 32.6738 104.449 32.6658 104.605L35.1638 101.265H35.8735V105.832H35.1176Z" fill="#FBF9F7"/>
<path d="M40.9931 106.868L40.9989 105.831H37.1914V101.265H37.9463V105.14H40.3436V101.265H41.0997V105.14H41.6819V106.868H40.9931Z" fill="#FBF9F7"/>
<path d="M46.1918 105.832V102.989C46.1918 102.825 46.1918 102.649 46.1976 102.492L43.7018 105.832H42.9922V101.265H43.7481V104.103C43.7481 104.274 43.7481 104.449 43.74 104.605L46.2382 101.265H46.9479V105.832H46.1918Z" fill="#FBF9F7"/>
<path d="M52.2201 101.267V105.834H51.464V103.889H49.0203V105.834H48.2656V101.267H49.0203V103.205H51.464V101.267H52.2201Z" fill="#FBF9F7"/>
<path d="M55.7076 101.18C56.1718 101.18 56.628 101.285 57.025 101.48V102.205C56.7009 101.982 56.2703 101.865 55.8339 101.865C54.9459 101.865 54.0256 102.381 54.0188 103.587C54.0188 104.71 54.9588 105.232 55.8466 105.232C56.3236 105.232 56.7542 105.108 57.0586 104.878V105.616C56.6674 105.805 56.2044 105.917 55.7135 105.917C54.5153 105.917 53.2432 105.146 53.25 103.587C53.25 101.963 54.4888 101.18 55.7076 101.18Z" fill="#FBF9F7"/>
<path d="M58.0938 105.832V101.265H58.8484V103.171H59.7631L61.0549 101.265H61.9093L60.373 103.49L62.0285 105.832H61.1741L59.7758 103.856H58.8484V105.832H58.0938Z" fill="#FBF9F7"/>
<path d="M65.9772 105.832V102.989C65.9772 102.825 65.9772 102.649 65.9828 102.492L63.487 105.832H62.7773V101.265H63.5334V104.103C63.5334 104.274 63.5334 104.449 63.5252 104.605L66.0234 101.265H66.7318V105.832H65.9772Z" fill="#FBF9F7"/>
<path d="M70.994 100.601V99.9999C70.6561 100.216 70.3585 100.281 70.0206 100.281C69.6766 100.281 69.3781 100.216 69.0412 99.9999V100.601C69.3317 100.802 69.6501 100.88 70.0206 100.88C70.3853 100.88 70.7035 100.802 70.994 100.601ZM71.2465 105.832V102.988C71.2465 102.825 71.2465 102.648 71.2521 102.492L68.7553 105.832H68.0469V101.265H68.8015V104.103C68.8015 104.273 68.8015 104.449 68.7957 104.605L71.2927 101.265H72.0012V105.832H71.2465Z" fill="#FBF9F7"/>
<path d="M19.8027 116L19.8085 114.963H16V110.397H16.7559V114.272H19.1534V110.397H19.9093V114.272H20.4917V116H19.8027Z" fill="#FBF9F7"/>
<path d="M24.5129 110.396V111.074H22.075V112.32H24.3149V112.999H22.075V114.283H24.5535V114.962H21.3203V110.396H24.5129Z" fill="#FBF9F7"/>
<path d="M29.5677 110.396V114.962H28.8119V113.019H26.3682V114.962H25.6133V110.396H26.3682V112.334H28.8119V110.396H29.5677Z" fill="#FBF9F7"/>
<path d="M34.2352 110.396V111.081H32.705V114.962H31.9501V111.081H30.4141V110.396H34.2352Z" fill="#FBF9F7"/>
<path d="M36.7779 111.076H35.8369V112.719H36.7779C37.4136 112.719 37.9495 112.562 37.9495 111.896C37.9495 111.232 37.4204 111.076 36.7779 111.076ZM36.7375 110.397C37.8372 110.397 38.7181 110.736 38.7181 111.896C38.7181 113.058 37.8372 113.398 36.7375 113.398H35.8369V114.962H35.082V110.397H36.7375Z" fill="#FBF9F7"/>
<path d="M29.3116 94.6087C28.9813 95.1015 28.6511 95.4565 28.3208 95.6739C27.9905 95.8913 27.5526 96 27.0069 96C26.4181 96 25.9299 95.8261 25.5421 95.4783C25.1688 95.1304 24.8888 94.5217 24.7021 93.6522L24.2282 91.4782C24.0559 90.7247 23.8908 90.145 23.7328 89.7392C23.5892 89.3334 23.3666 89.0073 23.0651 88.7609C22.7635 88.5145 22.3399 88.3913 21.7942 88.3913H19.7479V93.3913C19.7479 93.9421 19.791 94.3406 19.8772 94.587C19.9633 94.8334 20.1213 95 20.351 95.087C20.5952 95.1739 20.9757 95.232 21.4927 95.2609V95.6957C20.8321 95.6522 19.9203 95.6304 18.7571 95.6304C17.5221 95.6304 16.6031 95.6522 16 95.6957V95.2609C16.517 95.232 16.8903 95.1739 17.1201 95.087C17.3642 95 17.5293 94.8334 17.6155 94.587C17.7016 94.3406 17.7447 93.9421 17.7447 93.3913V82.6087C17.7447 82.058 17.7016 81.6594 17.6155 81.413C17.5293 81.1667 17.3642 81 17.1201 80.913C16.8903 80.8261 16.517 80.7681 16 80.7391V80.3043C16.6031 80.3478 17.4791 80.3696 18.6279 80.3696L20.9542 80.3478C21.227 80.3333 21.5357 80.3261 21.8804 80.3261C23.5461 80.3261 24.8241 80.6812 25.7145 81.3913C26.6191 82.087 27.0715 82.9928 27.0715 84.1087C27.0715 84.6739 26.935 85.2464 26.6622 85.8261C26.4037 86.3913 25.9586 86.9058 25.3267 87.3696C24.7093 87.8189 23.8979 88.1232 22.8927 88.2826L23.1512 88.3261C24.099 88.4855 24.7883 88.7754 25.2191 89.1957C25.6498 89.616 25.9657 90.2826 26.1668 91.1956L26.7053 93.413C26.8489 94.0798 26.9996 94.5435 27.1576 94.8043C27.3156 95.0652 27.531 95.1957 27.8038 95.1957C28.048 95.1957 28.249 95.1304 28.4069 95C28.5793 94.8696 28.7731 94.6595 28.9885 94.3696L29.3116 94.6087ZM21.3419 80.7391C20.8967 80.7391 20.5593 80.7899 20.3295 80.8913C20.1141 80.9928 19.9633 81.1739 19.8772 81.4348C19.791 81.6957 19.7479 82.087 19.7479 82.6087V87.9565H21.1911C22.6127 87.9565 23.5892 87.6377 24.1205 87C24.6518 86.3623 24.9175 85.4783 24.9175 84.3478C24.9175 83.1594 24.6375 82.2609 24.0774 81.6522C23.5174 81.0435 22.6055 80.7391 21.3419 80.7391ZM37.7001 80C39.0642 80 40.2561 80.3116 41.2757 80.9348C42.3096 81.558 43.1066 82.4638 43.6666 83.6522C44.241 84.8261 44.5282 86.2319 44.5282 87.8696C44.5282 89.4638 44.2338 90.8768 43.6451 92.1087C43.0706 93.3406 42.2593 94.2972 41.2111 94.9783C40.1772 95.6595 38.9996 96 37.6786 96C36.3143 96 35.1153 95.6885 34.0814 95.0652C33.0618 94.4421 32.2648 93.5435 31.6905 92.3696C31.1304 91.1812 30.8504 89.7681 30.8504 88.1305C30.8504 86.5363 31.1376 85.1232 31.712 83.8913C32.3007 82.6594 33.1121 81.7029 34.146 81.0217C35.1943 80.3406 36.3789 80 37.7001 80ZM37.6139 80.3913C36.6948 80.3913 35.8835 80.7174 35.1799 81.3696C34.4907 82.0073 33.9522 82.9058 33.5644 84.0652C33.1911 85.2247 33.0044 86.5507 33.0044 88.0435C33.0044 89.5508 33.2126 90.8768 33.6291 92.0217C34.0599 93.1667 34.6342 94.0508 35.3523 94.6739C36.0702 95.2972 36.8744 95.6087 37.7647 95.6087C38.6837 95.6087 39.4879 95.2899 40.1772 94.6522C40.8808 94 41.4193 93.0942 41.7927 91.9348C42.1804 90.7754 42.3742 89.4493 42.3742 87.9565C42.3742 86.4493 42.1588 85.1232 41.728 83.9783C41.3116 82.8333 40.7443 81.9493 40.0264 81.3261C39.3084 80.7029 38.5042 80.3913 37.6139 80.3913ZM51.8348 80.0652C52.4665 80.0652 52.9619 80.1377 53.321 80.2826C53.6943 80.413 54.0749 80.6087 54.4626 80.8696C54.7785 81.0725 55.0227 81.1739 55.195 81.1739C55.3242 81.1739 55.4247 81.1015 55.4965 80.9565C55.5683 80.7971 55.6258 80.5507 55.6688 80.2174H56.1643C56.0924 81.058 56.0566 82.5362 56.0566 84.6522H55.5611C55.475 83.4783 55.1375 82.4928 54.5488 81.6957C53.9743 80.8841 53.1343 80.4783 52.0286 80.4783C51.2532 80.4783 50.6213 80.7174 50.1331 81.1957C49.6448 81.6594 49.4007 82.2609 49.4007 83C49.4007 83.5507 49.5228 84.029 49.7669 84.4348C50.0254 84.8406 50.3485 85.1884 50.7362 85.4783C51.1239 85.7681 51.6768 86.1377 52.3948 86.587L53.0194 86.9783C53.9241 87.5435 54.6349 88.0435 55.1519 88.4783C55.6832 88.8986 56.1067 89.3841 56.4227 89.9348C56.7386 90.4855 56.8966 91.1304 56.8966 91.8696C56.8966 93.1885 56.4658 94.2102 55.6042 94.9348C54.7426 95.645 53.6512 96 52.3302 96C51.6409 96 51.0736 95.9276 50.6285 95.7826C50.1977 95.6377 49.7813 95.4421 49.3792 95.1957C49.0632 94.9928 48.8192 94.8913 48.6469 94.8913C48.5176 94.8913 48.417 94.9711 48.3453 95.1304C48.2735 95.2754 48.2161 95.5146 48.173 95.8478H47.6776C47.735 95.0508 47.7637 93.3116 47.7637 90.6304H48.2591C48.3596 92.0942 48.7186 93.2826 49.3361 94.1956C49.9536 95.1087 50.9013 95.5652 52.1794 95.5652C52.9548 95.5652 53.6153 95.3261 54.1611 94.8478C54.7067 94.3551 54.9796 93.6304 54.9796 92.6739C54.9796 91.8624 54.7067 91.1739 54.1611 90.6087C53.6297 90.0435 52.7825 89.4058 51.6194 88.6957C50.7721 88.1739 50.0828 87.7102 49.5515 87.3044C49.0346 86.8986 48.6109 86.4131 48.2807 85.8478C47.9504 85.2681 47.7853 84.5942 47.7853 83.8261C47.7853 82.6087 48.173 81.6812 48.9484 81.0435C49.7238 80.3913 50.6859 80.0652 51.8348 80.0652ZM74 80.7391C73.483 80.7681 73.1025 80.8261 72.8585 80.913C72.6287 81 72.4707 81.1667 72.3846 81.413C72.2984 81.6594 72.2553 82.058 72.2553 82.6087V93.3913C72.2553 93.9421 72.2984 94.3406 72.3846 94.587C72.4707 94.8334 72.6287 95 72.8585 95.087C73.1025 95.1739 73.483 95.232 74 95.2609V95.6957C73.3969 95.6522 72.4779 95.6304 71.2429 95.6304C70.0798 95.6304 69.168 95.6522 68.5073 95.6957V95.2609C69.0243 95.232 69.3977 95.1739 69.6274 95.087C69.8716 95 70.0367 94.8334 70.1228 94.587C70.209 94.3406 70.2521 93.9421 70.2521 93.3913V88.1739H63.2516V93.3913C63.2516 93.9421 63.2947 94.3406 63.3809 94.587C63.467 94.8334 63.625 95 63.8547 95.087C64.0989 95.1739 64.4794 95.232 64.9963 95.2609V95.6957C64.3358 95.6522 63.4239 95.6304 62.2608 95.6304C61.0259 95.6304 60.1068 95.6522 59.5037 95.6957V95.2609C60.0206 95.232 60.394 95.1739 60.6238 95.087C60.8679 95 61.033 94.8334 61.1192 94.587C61.2053 94.3406 61.2484 93.9421 61.2484 93.3913V82.6087C61.2484 82.058 61.2053 81.6594 61.1192 81.413C61.033 81.1667 60.8679 81 60.6238 80.913C60.394 80.8261 60.0206 80.7681 59.5037 80.7391V80.3043C60.1068 80.3478 61.0259 80.3696 62.2608 80.3696C63.4096 80.3696 64.3215 80.3478 64.9963 80.3043V80.7391C64.4794 80.7681 64.0989 80.8261 63.8547 80.913C63.625 81 63.467 81.1667 63.3809 81.413C63.2947 81.6594 63.2516 82.058 63.2516 82.6087V87.7392H70.2521V82.6087C70.2521 82.058 70.209 81.6594 70.1228 81.413C70.0367 81.1667 69.8716 81 69.6274 80.913C69.3977 80.8261 69.0243 80.7681 68.5073 80.7391V80.3043C69.168 80.3478 70.0798 80.3696 71.2429 80.3696C72.4779 80.3696 73.3969 80.3478 74 80.3043V80.7391Z" fill="#FBF9F7"/>
<path d="M54 52.4044C53.6278 52.9696 53.2557 53.3767 52.8835 53.626C52.5113 53.8753 52.0178 54 51.4029 54C50.7394 54 50.1893 53.8006 49.7524 53.4017C49.3317 53.0028 49.0162 52.3047 48.8058 51.3075L48.2718 48.8144C48.0777 47.9502 47.8916 47.2854 47.7136 46.82C47.5518 46.3546 47.301 45.9806 46.9612 45.6981C46.6214 45.4155 46.144 45.2743 45.5291 45.2743H43.2233V51.0083C43.2233 51.6399 43.2718 52.097 43.3689 52.3795C43.466 52.6621 43.644 52.8532 43.9029 52.9529C44.178 53.0526 44.6068 53.1192 45.1893 53.1524V53.651C44.445 53.6011 43.4175 53.5762 42.1068 53.5762C40.7152 53.5762 39.6796 53.6011 39 53.651V53.1524C39.5825 53.1192 40.0032 53.0526 40.2621 52.9529C40.5372 52.8532 40.7233 52.6621 40.8204 52.3795C40.9175 52.097 40.966 51.6399 40.966 51.0083V38.6427C40.966 38.0111 40.9175 37.554 40.8204 37.2715C40.7233 36.9889 40.5372 36.7978 40.2621 36.6981C40.0032 36.5983 39.5825 36.5319 39 36.4986V36C39.6796 36.0499 40.6667 36.0748 41.9612 36.0748L44.5825 36.0499C44.89 36.0332 45.2379 36.0249 45.6262 36.0249C47.5032 36.0249 48.9434 36.4321 49.9466 37.2465C50.966 38.0443 51.4757 39.0831 51.4757 40.3629C51.4757 41.0111 51.322 41.6676 51.0146 42.3324C50.7233 42.9806 50.2217 43.5707 49.5097 44.1025C48.8139 44.6178 47.8997 44.9668 46.767 45.1496L47.0583 45.1995C48.1262 45.3823 48.9029 45.7147 49.3883 46.1967C49.8738 46.6787 50.2297 47.4432 50.4563 48.4903L51.0631 51.0332C51.2249 51.7979 51.3948 52.3296 51.5728 52.6288C51.7508 52.928 51.9936 53.0776 52.301 53.0776C52.5761 53.0776 52.8025 53.0028 52.9806 52.8532C53.1748 52.7036 53.3932 52.4626 53.6359 52.1302L54 52.4044ZM45.0194 36.4986C44.5178 36.4986 44.1375 36.5568 43.8786 36.6731C43.6359 36.7895 43.466 36.9972 43.3689 37.2964C43.2718 37.5956 43.2233 38.0443 43.2233 38.6427V44.7756H44.8495C46.4515 44.7756 47.5518 44.41 48.1505 43.6787C48.7492 42.9474 49.0485 41.9335 49.0485 40.6371C49.0485 39.2742 48.733 38.2438 48.1019 37.5457C47.4709 36.8476 46.4434 36.4986 45.0194 36.4986Z" fill="#FBF9F7"/>
<defs>
<filter id="filter0_b_1257_15453" x="-10" y="-10" width="110" height="152" filterUnits="userSpaceOnUse" color-interpolation-filters="sRGB">
<feFlood flood-opacity="0" result="BackgroundImageFix"/>
<feGaussianBlur in="BackgroundImage" stdDeviation="5"/>
<feComposite in2="SourceAlpha" operator="in" result="effect1_backgroundBlur_1257_15453"/>
<feBlend mode="normal" in="SourceGraphic" in2="effect1_backgroundBlur_1257_15453" result="shape"/>
</filter>
</defs>
</svg>
